
<svg xmlns="http://www.w3.org/2000/svg" version="1.1" xmlns:xlink="http://www.w3.org/1999/xlink" preserveAspectRatio="none" x="0px" y="0px" width="960px" height="165px" viewBox="0 0 960 165">
<defs>
<filter id="Filter_1" x="-20%" y="-20%" width="140%" height="140%" color-interpolation-filters="sRGB">
<feFlood flood-color="#424242" flood-opacity="0.4" in="SourceGraphic" result="result1"/>

<feComposite in2="SourceGraphic" in="result1" operator="in" result="result2"/>

<feGaussianBlur in="result2" stdDeviation="1.6666666666666667,1.6666666666666667" result="result3"/>

<feOffset dx="3.5355339059327378" dy="3.5355339059327378" in="result3" result="result4"/>

<feComposite in2="result4" in="SourceGraphic" operator="over" result="result5"/>
</filter>

<g id="Notepad_0_Layer3_0_FILL">
<path fill="#FFFFFF" fill-opacity="0.8980392156862745" stroke="none" d="
M 903.95 162
L 903.95 0 0 0 0 162 903.95 162 Z"/>
</g>

<g id="Ring_0_Layer1_0_FILL">
<path fill="#000000" fill-opacity="0.8980392156862745" stroke="none" d="
M 39.5 -5.2
Q 35.75 -5.2 33.1 -2.55 30.45 0.1 30.45 3.85 30.45 7.6 33.1 10.25 35.75 12.9 39.5 12.9 43.25 12.9 45.9 10.25 48.55 7.6 48.55 3.85 48.55 0.1 45.9 -2.55 43.25 -5.2 39.5 -5.2 Z"/>
</g>

<path id="Notepad_0_Layer2_0_1_STROKES" stroke="#6B6BFA" stroke-width="1" stroke-linejoin="round" stroke-linecap="round" fill="none" d="
M 0 73
L 903.95 73
M 0 51
L 903.95 51
M 0 95
L 903.95 95
M 0 117
L 903.95 117
M 0 139
L 903.95 139"/>

<path id="Notepad_0_Layer1_0_1_STROKES" stroke="#FF6666" stroke-width="1" stroke-linejoin="round" stroke-linecap="round" fill="none" d="
M 76 0
L 76 162"/>

<path id="Ring_0_Layer0_0_1_STROKES" stroke="#333333" stroke-width="3" stroke-linejoin="round" stroke-linecap="round" fill="none" d="
M 0 8.15
L 39 8.15
M 0 0
L 39 0"/>
</defs>

<g filter="url(#Filter_1)" transform="matrix( 1, 0, 0, 1, 0,0) ">
<g transform="matrix( 1, 0, 0, 1, 29.05,4) ">
<g transform="matrix( 1, 0, 0, 1, 0,0) ">
<use xlink:href="#Notepad_0_Layer3_0_FILL"/>
</g>

<g transform="matrix( 1, 0, 0, 1, 0,0) ">
<use xlink:href="#Notepad_0_Layer2_0_1_STROKES"/>
</g>

<g transform="matrix( 1, 0, 0, 1, 0,0) ">
<use xlink:href="#Notepad_0_Layer1_0_1_STROKES"/>
</g>

<g transform="matrix( 1, 0, 0, 1, -14.5,58.2) ">
<g transform="matrix( 1, 0, 0, 1, 0,0) ">
<use xlink:href="#Ring_0_Layer1_0_FILL"/>
</g>

<g transform="matrix( 1, 0, 0, 1, 0,0) ">
<use xlink:href="#Ring_0_Layer0_0_1_STROKES"/>
</g>
</g>

<g transform="matrix( 1, 0, 0, 1, -14.5,80.25) ">
<g transform="matrix( 1, 0, 0, 1, 0,0) ">
<use xlink:href="#Ring_0_Layer1_0_FILL"/>
</g>

<g transform="matrix( 1, 0, 0, 1, 0,0) ">
<use xlink:href="#Ring_0_Layer0_0_1_STROKES"/>
</g>
</g>

<g transform="matrix( 1, 0, 0, 1, -14.5,102.25) ">
<g transform="matrix( 1, 0, 0, 1, 0,0) ">
<use xlink:href="#Ring_0_Layer1_0_FILL"/>
</g>

<g transform="matrix( 1, 0, 0, 1, 0,0) ">
<use xlink:href="#Ring_0_Layer0_0_1_STROKES"/>
</g>
</g>

<g transform="matrix( 1, 0, 0, 1, -14.5,124.55) ">
<g transform="matrix( 1, 0, 0, 1, 0,0) ">
<use xlink:href="#Ring_0_Layer1_0_FILL"/>
</g>

<g transform="matrix( 1, 0, 0, 1, 0,0) ">
<use xlink:href="#Ring_0_Layer0_0_1_STROKES"/>
</g>
</g>

<g transform="matrix( 1, 0, 0, 1, -14.5,146.3) ">
<g transform="matrix( 1, 0, 0, 1, 0,0) ">
<use xlink:href="#Ring_0_Layer1_0_FILL"/>
</g>

<g transform="matrix( 1, 0, 0, 1, 0,0) ">
<use xlink:href="#Ring_0_Layer0_0_1_STROKES"/>
</g>
</g>
</g>
</g>
</svg>
