
<svg xmlns="http://www.w3.org/2000/svg" version="1.1" xmlns:xlink="http://www.w3.org/1999/xlink" preserveAspectRatio="none" x="0px" y="0px" width="1490px" height="245px" viewBox="0 0 1490 245">
<defs>
<filter id="Filter_1" x="-20%" y="-20%" width="140%" height="140%" color-interpolation-filters="sRGB">
<feFlood flood-color="#000000" flood-opacity="0.4980392156862745" in="SourceGraphic" result="result1"/>

<feComposite in2="SourceGraphic" in="result1" operator="in" result="result2"/>

<feGaussianBlur in="result2" stdDeviation="3.3333333333333335,3.3333333333333335" result="result3"/>

<feOffset dx="3.5355339059327378" dy="3.5355339059327378" in="result3" result="result4"/>

<feComposite in2="result4" in="SourceGraphic" operator="over" result="result5"/>
</filter>

<filter id="Filter_2" x="-41.864927836901145%" y="-41.47118645144959%" width="183.7298556738023%" height="182.9423729028992%" color-interpolation-filters="sRGB">
<feFlood flood-color="#000000" flood-opacity="0.4980392156862745" in="SourceGraphic" result="result1"/>

<feComposite in2="SourceGraphic" in="result1" operator="in" result="result2"/>

<feGaussianBlur in="result2" stdDeviation="5,5" result="result3"/>

<feOffset dx="2.8284271247461903" dy="2.8284271247461903" in="result3" result="result4"/>

<feComposite in2="result4" in="SourceGraphic" operator="over" result="result5"/>
</filter>

<g id="Reminder_0_Layer2_0_FILL">
<path fill="#FFF174" stroke="none" d="
M 1402 209
L 1430.75 197.95 1456 213.4 1463.4 206 1463.4 0 55.95 0 55.95 56.65 0 56.65 0 207.4 21 190.45 48 213.4 75.25 186.4 102 213.4 129.15 193.4 156 213.4 183 186.4 208.25 207.35 238 186.4 265 213.4 292 186.4 319 213.4 345.9 200.65 373 213.4 400 186.4 427 213.4 454 186.4 481 213.4 508 188.8 535 213.4 561.65 181.35 584.25 211.25 617 187.6 644 213.4 671 192.6 698 208.3 725.25 194.45 752 213.4 779 186.4 823.6 212.85 833 186.4 860.3 209.6 888 186.4 915 198.1 942 186.4 969 213.4 996 186.4 1023 213.4 1042.3 188.7 1077 213.4 1110.2 204.1 1131 213.4 1157.45 188.8 1185 213.4 1213 186.4 1238.8 202 1267 186.4 1284.2 213.15 1321 186.4 1348 213.4 1375 186.4 1402 209 Z"/>
</g>

<g id="Fold_0_Layer0_0_FILL">
<path fill="#FFF174" stroke="none" d="
M 55.95 0
L 0 56.65 55.95 56.65 55.95 0 Z"/>
</g>

<g id="Reminder_0_Layer0_0_FILL">
<path fill="#333333" fill-opacity="0.8470588235294118" stroke="none" d="
M 130 137.55
Q 128.75 137.25 126.85 137.7 124.25 138.15 123.7 138.15 121.8 138.15 120.85 138.3 119 138.7 118.7 140.05
L 118.6 140.5
Q 118.45 140.9 118.3 141.1 118.25 141.3 117.3 141.7 115.6 142.3 113.4 144.2 111.75 145.5 111.1 146.7 110.15 148.35 110.3 151.6 110.55 156.8 113.1 158.6 112.2 159.3 112 161.45 111.75 163.85 112.5 165.1 113.1 166.05 114.35 166.8 116.45 168.05 119.75 168.2 120.9 168.35 125.55 168.15 127.95 168.15 129.1 167.9 131 167.65 132.2 166.65 133 166 134 164.5 135.6 162.2 136.25 160.95 139.95 154.5 140.6 145.55 140.9 141.9 140.35 139.35 140.15 138.05 139.5 137.4 138.05 135.85 134.9 137.15 132.9 138 132 137.9
L 130 137.55
M 125.35 145
L 126.65 143.95
Q 126.7 143.85 126.75 143.9 126.8 144 126.7 144.25 126.5 144.45 126.35 144.6 125.9 144.85 125.35 145
M 129.3 148.3
Q 129.55 147.7 129.35 147.2 131.25 146.8 131.9 147.75 132.5 148.6 131.95 150 131.7 150.6 131.1 151.65 130.6 152.65 130.5 153.4 130.5 154.1 130.5 154.3 130.45 154.8 130 154.9 129.8 155.1 129.3 154.95 128.35 155.15 127.9 155 127.3 155 126.35 154.15 125.25 153.1 123.9 151.65 123.6 151.3 123.7 151.1 123.65 150.75 124.3 150.5 125.55 149.6 126.3 148.65 126.75 149.1 127.3 149.2 127.9 149.25 128.5 149.05 128.95 148.8 129.3 148.3
M 137.05 140.1
Q 137.1 140.55 137.2 141.5
L 137.25 143.8
Q 137.35 144.35 137.15 144.45 137.45 142.6 136 141.35 135.35 140.9 135.25 140.7 136.15 140.15 137.05 140.1
M 117.75 145.4
Q 117.2 146.05 117.25 147.2
L 117.35 149.15
Q 117.35 149.8 117.1 151.2 117.15 151.45 117.2 152 117.2 152.45 117.15 152.7 117 153.2 116.2 153.95
L 114.75 155.35
Q 113.85 154.3 113.7 151.5 113.6 149.7 113.9 148.75 114.25 147.7 115.5 146.8 116.15 146.2 117.75 145.4
M 115.85 160.7
Q 115.95 160.45 116.15 160.4 116.35 160.4 116.6 160.55
L 120.75 162.8
Q 121.85 163.4 122.5 163.55 123 163.65 123.9 163.95 124.75 164.2 125.1 164.7
L 120.7 164.75
Q 118.8 164.8 117.65 164.5 116.65 164.3 116 163.7 115.4 163.2 115.4 162.25 115.35 161.35 115.85 160.7
M 121.45 159.2
Q 119.25 158.2 117.8 157.2 117.85 157.05 118 157 118.15 156.85 118.35 156.95 118.45 156.95 118.9 157.3 119.35 157.7 120.2 158.05 120.7 158.25 121.7 158.55 122.05 158.7 123.05 159.2 123.85 159.6 124.35 159.7 125.3 160.05 127.1 159.85 130.4 159.6 131.9 158.9 131.35 159.2 129.7 160.5 128.3 161.55 127.2 161.55 126.7 161.5 125.35 160.95 122.75 159.75 121.45 159.2
M 83.15 21
Q 82.25 21.7 81.75 23.3 80.95 25.8 81.15 30 81.5 35.55 81.3 37.05 81.2 38.15 80.85 40.35 80.7 42.3 80.9 43.6 81.25 45.45 82.65 47.65 83.45 48.85 85.2 51.25 86.95 53.95 88 57.1 88.5 58.9 89.2 62.75 89.8 66.6 90.4 68.5 91.55 72.45 94.75 77.85 97.25 81.85 102.2 89.95 106.25 97.2 107.6 103.1 108.05 104.85 108.45 108.35 109.05 111.75 109.4 113.45 110.75 119.65 114.25 122.65 115.65 123.95 117.45 124.55 119.45 125.15 121.2 124.6 122.2 124.4 122.6 123.75 123.1 122.9 122.35 121.95 121.85 121.05 120.8 120.45 122.05 120.1 122.85 118.7 123.55 117.5 123.4 116 123.25 114.8 122.65 113.25 121.75 111.6 121.45 110.8 120.4 108.1 119.9 104 119.35 99.25 119 96.9 118.45 93 116.6 86.45 114.5 79.05 113.8 76.2 112.95 71.75 112.45 66.1 112.25 63.1 112.05 56.05 111.75 48.7 110.7 44.85 110.1 42.2 107.5 36.1 104.15 28.15 101.8 20.25 101.1 18 100.35 17.15 99.8 16.4 98.95 16.1 98 15.75 97.25 16.1 96.2 16.45 95.4 18.65 94.45 21.05 93.65 21.55 92.25 22.35 89.9 21.45 87.45 20.55 86.4 20.35 84.3 20 83.15 21
M 85.5 24.2
Q 85.65 24.05 86.15 24 88.65 24.1 90.95 25.1 91.4 25.35 91.45 25.55 91.6 25.65 91.65 26.1
L 92 33.55
Q 91.05 32.65 89.85 33.1 88.6 33.35 88.2 34.6
L 87.95 35.55
Q 87.9 35.9 87.15 36.75 85.7 38.45 85.9 41.7 86.05 44.6 87 47.4 86.55 47.5 86.1 46.75 85.85 46 85.7 45.6
L 84.75 44.15
Q 84.35 43.4 84.3 41.9 84.25 40.1 84.4 39.65
L 84.8 37.85
Q 84.65 36.4 84.7 35.65
L 84.85 33.55
Q 84.9 32.7 84.75 30.25
L 84.55 27.1
Q 84.5 26.2 84.6 25.8 85 25.1 85.15 24.8 85.4 24.25 85.5 24.2
M 97.2 32.25
Q 97.15 31.65 97.4 31.55 99.9 35.4 102.4 40.25 103.15 41.7 103.3 42.35 103.55 43.55 103.2 45.15 103.05 46.05 102.65 47.9 102.2 50 102.45 51.8
L 101.4 49.75
Q 100.65 48.45 100.2 47.35 99.3 45.35 98.75 42.75 98.05 40.35 97.55 37.3 97.2 34.15 97.2 32.25
M 89.4 40.8
Q 89.4 38.9 90.45 37.9 90.9 37.5 91.2 37.55 91.4 37.55 91.75 37.8 92.45 38.55 92.75 39.85 92.95 40.4 93.15 42.1 93.5 44.4 94.6 47.9
L 96.1 53.75
Q 96.5 55.35 97.1 58.3 99.15 68.6 100.45 76.45 99.45 73.9 98.15 71.15 96.2 67.05 95.3 64.9
L 93.85 60.7
Q 92.8 57.3 92.25 55.35 91.55 52.8 90.6 47.95
L 89.8 43.85
Q 89.3 41.7 89.4 40.8
M 106.4 59.95
Q 105.95 56.95 106.1 54.5
L 108.7 66.45
Q 109.7 70.85 109.4 73.05
L 107.65 65.35
Q 106.75 61.75 106.4 59.95
M 112.75 100.7
L 114.75 108.9
Q 113.9 107.8 113.4 106.4 113.2 105.45 113.15 105.25 112.35 104.2 112.25 103.65 112.05 102.95 112.45 101.55
L 112.75 100.7
M 113.7 115.65
Q 112.6 114.05 112.2 112.15
L 112.3 111.95
Q 113.1 113.8 113.7 115.65 Z"/>
</g>

<path id="Reminder_0_Layer1_0_1_STROKES" stroke="#999999" stroke-opacity="0.4980392156862745" stroke-width="2" stroke-linejoin="round" stroke-linecap="round" fill="none" d="
M 96.25 92.7
L 1374.75 92.7
M 96.25 148.2
L 1374.75 148.2"/>
</defs>

<g filter="url(#Filter_1)" transform="matrix( 1, 0, 0, 1, 0,0) ">
<g transform="matrix( 1, 0, 0, 1, 13.15,13.15) ">
<g transform="matrix( 1, 0, 0, 1, 0,0) ">
<use xlink:href="#Reminder_0_Layer2_0_FILL"/>
</g>

<g filter="url(#Filter_2)" transform="matrix( 1, 0, 0, 1, -13.15,-13.15) ">
<g transform="matrix( 1, 0, 0, 1, 13.15,13.15) ">
<g transform="matrix( 1, 0, 0, 1, 0,0) ">
<use xlink:href="#Fold_0_Layer0_0_FILL"/>
</g>
</g>
</g>

<g transform="matrix( 1, 0, 0, 1, 0,0) ">
<use xlink:href="#Reminder_0_Layer1_0_1_STROKES"/>
</g>

<g transform="matrix( 1, 0, 0, 1, 0,0) ">
<use xlink:href="#Reminder_0_Layer0_0_FILL"/>
</g>
</g>
</g>
</svg>
