
<svg xmlns="http://www.w3.org/2000/svg" version="1.1" xmlns:xlink="http://www.w3.org/1999/xlink" preserveAspectRatio="none" x="0px" y="0px" width="400px" height="400px" viewBox="0 0 400 400">
<defs>
<filter id="Filter_1" x="-20.37719378404858%" y="-33.446216030876684%" width="140.75438756809717%" height="166.89243206175337%" color-interpolation-filters="sRGB">
<feGaussianBlur in="SourceGraphic" stdDeviation="6.333333333333333,6.333333333333333" result="result1"/>
</filter>

<g id="Shadow_0_Layer0_0_FILL">
<path fill="#333333" fill-opacity="0.4980392156862745" stroke="none" d="
M 199.35 36.25
Q 194.5 31.85 188.85 29.2 182 26.1 174.05 25.45 159.5 24.45 149.45 32.7 144.35 37 141.9 42.35
L 126.8 38.6
Q 124.05 27.2 115.1 17.45 101.75 3 82.15 0.45 81.35 0.35 80.45 0.3 59.8 -1.8 44.5 10.2 38.15 15.2 34.2 21.4 32.75 23.85 31.6 26.5 30.35 29.3 29.55 32.25 29.35 32.2 29.15 32.2
L 7 29.25
Q 4.3 28.85 2.35 30.1 0.2 31.2 0 33.2 -0.2 35.2 1.55 36.9 3.25 38.6 5.9 38.9
L 28.1 41.9
Q 27.3 60.75 41.1 75.6 55 90.65 75.65 92.7 81.45 93.4 86.9 92.8 100.7 91.55 111.6 82.9 120.15 76.25 124.25 67.3
L 143.4 67.1
Q 146.1 72 150.8 76.3 161.4 86.1 176 87.15 177.25 87.2 178.45 87.3 191.5 87.45 200.7 79.85 203.1 77.9 204.9 75.7 210.7 68.5 210.3 58.8 210.25 56.6 209.95 54.55 208.15 44.35 199.35 36.25 Z"/>
</g>

<g id="Pushpin_0_Layer3_0_FILL">
<path fill="#333333" stroke="none" d="
M 59.65 175.25
Q 60.05 175.4 60.4 175.65
L 91.75 131.2
Q 91.1 130.1 89.95 129.45 87.65 127.9 85.05 128.4 82.4 128.95 81.05 131.25
L 57.9 166.25
Q 56.3 168.5 56.9 171.1 57.4 173.7 59.65 175.25 Z"/>

<path fill="#1B1B1B" stroke="none" d="
M 60.4 175.65
Q 62.4 176.55 64.65 176.1 67.25 175.6 68.75 173.45
L 91.85 138.45
Q 93.3 136.2 92.75 133.5 92.45 132.2 91.75 131.2
L 60.4 175.65 Z"/>
</g>

<g id="Pushpin_0_Layer2_0_FILL">
<path fill="#960000" stroke="none" d="
M 58.6 135.65
Q 58.715625 135.74453125 58.8 135.85 64.85 143.55 73.6 149.9 94.3 164.95 117.65 163.7 141 162.55 153.3 145.75 156.8 141.05 158.85 135.85 164.05 122.65 159.8 106.55 158.96484375 103.3447265625 157.8 100.3 155.2255859375 112.8595703125 150.7 122.2
L 135.6 108.8 113.35 123.95 133.7 142.35
Q 108.0572265625 158.848046875 58.6 135.65 Z"/>

<path fill="#D00000" stroke="none" d="
M 133.25 69.05
Q 112.55 53.95 89.2 55.15 66.75 56.25 54.45 71.8 53.95 72.4 53.45 73.1 41.1 89.85 47.05 112.3 49.45 121.65 54.45 129.7 56.3314453125 132.7392578125 58.6 135.65 108.0572265625 158.848046875 133.7 142.35
L 113.35 123.95 135.6 108.8 150.7 122.2
Q 155.2255859375 112.8595703125 157.8 100.3 150.99453125 81.951171875 133.25 69.05 Z"/>
</g>

<g id="Pushpin_0_Layer1_0_FILL">
<path fill="#770000" stroke="none" d="
M 112.8 122.8
Q 117.758203125 123.5609375 123.65 123.6
L 168.25 38.7 160.5 34.45 112.8 122.8 Z"/>

<path fill="#A70000" stroke="none" d="
M 156.25 14.6
L 83.3 82.05
Q 78.55 118.7 111.3 125.55
L 112.8 122.8 160.5 34.45 167.8 20.95 156.25 14.6 Z"/>
</g>

<g id="Pushpin_0_Layer0_0_FILL">
<path fill="#FF0000" fill-opacity="0.8980392156862745" stroke="none" d="
M 188.2 23.2
Q 184.35 13 174.55 5.5 172.35 3.75 170.15 2.4 162.35 -2.3 153.65 -3.45 122.3 6.8 119.25 43.1 121.2 46.8 124.05 50.2 127.05 53.8 131.15 56.95 143.95 66.8 159.3 66.15 173.95 65.65 182.9 56 183.3 55.5 183.7 55 184.45 54.05 185.1 53.2 192.45 43.15 190 29.8 189.45 26.35 188.2 23.2 Z"/>

<path fill="#FF4D4D" stroke="none" d="
M 153.65 -3.45
Q 150.1 -3.95 146.35 -3.8 139.35 -3.6 133.65 -1.2 126.9 1.7 122 7.45 112.95 18.1 115.65 32.55 116.7 38.15 119.25 43.1 122.3 6.8 153.65 -3.45 Z"/>
</g>
</defs>

<g transform="matrix( 1, 0, 0, 1, 45.4,89.3) ">
<g filter="url(#Filter_1)" transform="matrix( 1, 0, 0, 1, -45.4,-89.3) ">
<g transform="matrix( 1, 0, 0, 1, 99.15,221.45) ">
<g transform="matrix( 1, 0, 0, 1, 0,0) ">
<use xlink:href="#Shadow_0_Layer0_0_FILL"/>
</g>
</g>
</g>

<g transform="matrix( 1, 0, 0, 1, 0,0) ">
<use xlink:href="#Pushpin_0_Layer3_0_FILL"/>
</g>

<g transform="matrix( 1, 0, 0, 1, 0,0) ">
<use xlink:href="#Pushpin_0_Layer2_0_FILL"/>
</g>

<g transform="matrix( 1, 0, 0, 1, 0,0) ">
<use xlink:href="#Pushpin_0_Layer1_0_FILL"/>
</g>

<g transform="matrix( 1, 0, 0, 1, 0,0) ">
<use xlink:href="#Pushpin_0_Layer0_0_FILL"/>
</g>
</g>
</svg>
