
<svg xmlns="http://www.w3.org/2000/svg" version="1.1" xmlns:xlink="http://www.w3.org/1999/xlink" preserveAspectRatio="none" x="0px" y="0px" width="2450px" height="150px" viewBox="0 0 2450 150">
<defs>
<filter id="Filter_1" x="-20%" y="-31.83406113537118%" width="140%" height="163.66812227074234%" color-interpolation-filters="sRGB">
<feFlood flood-color="#000000" flood-opacity="0.4980392156862745" in="SourceGraphic" result="result1"/>

<feComposite in2="SourceGraphic" in="result1" operator="in" result="result2"/>

<feGaussianBlur in="result2" stdDeviation="5,5" result="result3"/>

<feOffset dx="0" dy="0" in="result3" result="result4"/>

<feComposite in2="result4" in="SourceGraphic" operator="over" result="result5"/>
</filter>

<filter id="Filter_2" x="-20%" y="-22.16541216192147%" width="140%" height="144.33082432384293%" color-interpolation-filters="sRGB">
<feFlood flood-color="#000000" flood-opacity="0.4980392156862745" in="SourceGraphic" result="result1"/>

<feGaussianBlur in="SourceGraphic" stdDeviation="3.3333333333333335,3.3333333333333335" result="result2"/>

<feComposite in2="result2" in="result1" operator="in" result="result3"/>

<feComposite in2="result3" in="SourceGraphic" operator="over" result="result4"/>
</filter>

<filter id="Filter_3" x="-20%" y="-28.96633475580844%" width="140%" height="157.9326695116169%" color-interpolation-filters="sRGB">
<feFlood flood-color="#000000" flood-opacity="0.09803921568627451" in="SourceGraphic" result="result1"/>

<feComposite in2="SourceGraphic" in="result1" operator="in" result="result2"/>

<feGaussianBlur in="result2" stdDeviation="6.666666666666667,6.666666666666667" result="result3"/>

<feOffset dx="0" dy="0" in="result3" result="result4"/>

<feComposite in2="result4" in="SourceGraphic" operator="over" result="result5"/>
</filter>

<filter id="Filter_4" x="-20%" y="-28.96633475580844%" width="140%" height="157.9326695116169%" color-interpolation-filters="sRGB">
<feFlood flood-color="#000000" flood-opacity="0.09803921568627451" in="SourceGraphic" result="result1"/>

<feComposite in2="SourceGraphic" in="result1" operator="in" result="result2"/>

<feGaussianBlur in="result2" stdDeviation="6.666666666666667,6.666666666666667" result="result3"/>

<feOffset dx="0" dy="0" in="result3" result="result4"/>

<feComposite in2="result4" in="SourceGraphic" operator="over" result="result5"/>
</filter>

<filter id="Filter_5" x="-20%" y="-28.96633475580844%" width="140%" height="157.9326695116169%" color-interpolation-filters="sRGB">
<feFlood flood-color="#000000" flood-opacity="0.2" in="SourceGraphic" result="result1"/>

<feComposite in2="SourceGraphic" in="result1" operator="in" result="result2"/>

<feGaussianBlur in="result2" stdDeviation="6.666666666666667,6.666666666666667" result="result3"/>

<feOffset dx="0" dy="0" in="result3" result="result4"/>

<feComposite in2="result4" in="SourceGraphic" operator="over" result="result5"/>
</filter>

<g id="Shadow_0_Layer0_0_FILL">
<path fill="#FCF582" stroke="none" d="
M 164.85 26.65
L 175.8 0 0 0 28.3 68.7 147.55 68.7 164.85 26.65 Z"/>

<path fill="#FFCA6E" stroke="none" d="
M 352.35 27.05
L 363.45 0 175.8 0 164.85 26.65 182.2 68.7 335.2 68.7 352.35 27.05 Z"/>

<path fill="#FF756E" stroke="none" d="
M 508.4 29.05
L 520.35 0 363.45 0 352.35 27.05 369.5 68.7 492.1 68.7 508.4 29.05 Z"/>

<path fill="#FF6EFA" stroke="none" d="
M 664.95 68.7
L 680.45 31 693.2 0 520.35 0 508.4 29.05 524.75 68.7 664.95 68.7 Z"/>

<path fill="#AF6EFF" stroke="none" d="
M 856.55 27.05
L 867.65 0 693.2 0 680.45 31 696 68.7 839.4 68.7 856.55 27.05 Z"/>

<path fill="#5584FC" stroke="none" d="
M 1114.25 31
L 1127 0 867.65 0 856.55 27.05 873.7 68.7 1098.75 68.7 1114.25 31 Z"/>

<path fill="#55B7FC" stroke="none" d="
M 1257.55 33
L 1271.1 0 1127 0 1114.25 31 1129.8 68.7 1242.85 68.7 1257.55 33 Z"/>

<path fill="#3EE6F5" stroke="none" d="
M 1425.65 32.95
L 1439.15 0 1271.1 0 1257.55 33 1272.25 68.7 1410.9 68.7 1425.65 32.95 Z"/>

<path fill="#3EF5A5" stroke="none" d="
M 1603 68.7
L 1616.15 36.85 1631.25 0 1439.15 0 1425.65 32.95 1440.35 68.7 1603 68.7 Z"/>

<path fill="#61F464" stroke="none" d="
M 1747.05 68.7
L 1775.3 0 1631.25 0 1616.15 36.85 1629.25 68.7 1747.05 68.7 Z"/>

<path fill="#FFFFFF" stroke="none" d="
M 2274.8 68.7
L 2303.05 0 1865.65 0 1893.95 68.7 2274.8 68.7 Z"/>
</g>

<g id="Search_0_Layer0_0_FILL">
<path fill="#FFFFFF" stroke="none" d="
M 2371.95 34.1
L 2371.95 10.1 2371.95 0 0 0 0 10.1 0 34.1 1897.1 34.1 1926.5 105.45 2307.35 105.45 2336.7 34.1 2371.05 34.1 2371.95 34.1 Z"/>
</g>

<g id="Links_0_Layer0_0_FILL">
<path fill="#61F464" stroke="none" d="
M 2370.95 34.1
L 2370.8 0 0 0 0 10.1 0 34.1 1632.4 34.1 1661.8 105.45 1779.6 105.45 1808.95 34.1 2370.95 34.1 Z"/>
</g>

<g id="Contacts_0_Layer0_0_FILL">
<path fill="#3EF5A5" stroke="none" d="
M 2370.95 34.1
L 2370.7 0 0 0 0 10.1 0 34.1 1443.5 34.1 1472.9 105.45 1635.55 105.45 1664.9 34.1 2370.95 34.1 Z"/>
</g>

<g id="Forum_0_Layer0_0_FILL">
<path fill="#3EE6F5" stroke="none" d="
M 2370.95 34.1
L 2370.7 0 0 0 0 10.1 0 34.1 1275.4 34.1 1304.8 105.45 1443.45 105.45 1472.8 34.1 2370.95 34.1 Z"/>
</g>

<g id="Shop_0_Layer0_0_FILL">
<path fill="#55B7FC" stroke="none" d="
M 2370.95 34.1
L 2370.7 0 0 0 0 10.1 0 34.1 1132.95 34.1 1162.35 105.45 1275.4 105.45 1304.75 34.1 2370.95 34.1 Z"/>
</g>

<g id="Documents_0_Layer0_0_FILL">
<path fill="#5584FC" stroke="none" d="
M 2370.95 34.1
L 2370.85 0 0 0 0 10.1 0 34.1 876.85 34.1 906.25 105.45 1131.3 105.45 1160.65 34.1 2370.95 34.1 Z"/>
</g>

<g id="Photos_0_Layer0_0_FILL">
<path fill="#AF6EFF" stroke="none" d="
M 2370.95 34.1
L 2370.7 0 0 0 0 10.1 0 34.1 699.15 34.1 728.55 105.45 871.95 105.45 901.3 34.1 2370.95 34.1 Z"/>
</g>

<g id="About_0_Layer0_0_FILL">
<path fill="#FCF582" stroke="none" d="
M 2370.95 34.1
L 2370.7 0 0 0 0 10.1 0 34.1 31.45 34.1 60.85 105.45 180.1 105.45 209.45 34.1 2370.95 34.1 Z"/>
</g>

<g id="History_0_Layer0_0_FILL">
<path fill="#FFCA6E" stroke="none" d="
M 2370.95 34.1
L 2370.95 0 0 0 0 10.1 0 34.1 185.35 34.1 214.75 105.45 367.75 105.45 397.1 34.1 2370.95 34.1 Z"/>
</g>

<g id="News_0_Layer0_0_FILL">
<path fill="#FF756E" stroke="none" d="
M 2370.95 34.1
L 2370.95 0 0 0 0 10.1 0 34.1 372.65 34.1 402.05 105.45 524.65 105.45 554 34.1 2370.95 34.1 Z"/>
</g>

<g id="Events_0_Layer0_0_FILL">
<path fill="#FF6EFA" stroke="none" d="
M 2369.95 34.1
L 2369.95 0 0 0 0 10.1 0 34.1 527.9 34.1 557.3 105.45 697.5 105.45 726.85 34.1 2369.95 34.1 Z"/>
</g>

<path id="Shadow_0_Layer0_0_1_STROKES" stroke="#E2E2E2" stroke-width="6" stroke-linejoin="bevel" stroke-linecap="round" fill="none" d="
M 1865.65 0
L 1893.95 68.7 2274.8 68.7 2303.05 0"/>

<path id="Shadow_0_Layer0_0_2_STROKES" stroke="#39E53D" stroke-width="6" stroke-linejoin="bevel" stroke-linecap="round" fill="none" d="
M 1616.15 36.85
L 1629.25 68.7 1747.05 68.7 1775.3 0"/>

<path id="Shadow_0_Layer0_0_3_STROKES" stroke="#1AE58C" stroke-width="6" stroke-linejoin="bevel" stroke-linecap="round" fill="none" d="
M 1631.25 0
L 1616.15 36.85 1603 68.7 1440.35 68.7 1425.65 32.95"/>

<path id="Shadow_0_Layer0_0_4_STROKES" stroke="#17D3E4" stroke-width="6" stroke-linejoin="bevel" stroke-linecap="round" fill="none" d="
M 1425.65 32.95
L 1410.9 68.7 1272.25 68.7 1257.55 33
M 1425.65 32.95
L 1439.15 0"/>

<path id="Shadow_0_Layer0_0_5_STROKES" stroke="#33A2F0" stroke-width="6" stroke-linejoin="bevel" stroke-linecap="round" fill="none" d="
M 1257.55 33
L 1242.85 68.7 1129.8 68.7 1114.25 31
M 1257.55 33
L 1271.1 0"/>

<path id="Shadow_0_Layer0_0_6_STROKES" stroke="#3065EC" stroke-width="6" stroke-linejoin="bevel" stroke-linecap="round" fill="none" d="
M 1114.25 31
L 1098.75 68.7 873.7 68.7 856.55 27.05
M 1114.25 31
L 1127 0"/>

<path id="Shadow_0_Layer0_0_7_STROKES" stroke="#9045EC" stroke-width="6" stroke-linejoin="bevel" stroke-linecap="round" fill="none" d="
M 856.55 27.05
L 839.4 68.7 696 68.7 680.45 31
M 856.55 27.05
L 867.65 0"/>

<path id="Shadow_0_Layer0_0_8_STROKES" stroke="#F04DEA" stroke-width="6" stroke-linejoin="bevel" stroke-linecap="round" fill="none" d="
M 680.45 31
L 664.95 68.7 524.75 68.7 508.4 29.05
M 680.45 31
L 693.2 0"/>

<path id="Shadow_0_Layer0_0_9_STROKES" stroke="#F5534B" stroke-width="6" stroke-linejoin="bevel" stroke-linecap="round" fill="none" d="
M 508.4 29.05
L 492.1 68.7 369.5 68.7 352.35 27.05
M 508.4 29.05
L 520.35 0"/>

<path id="Shadow_0_Layer0_0_10_STROKES" stroke="#F3B852" stroke-width="6" stroke-linejoin="bevel" stroke-linecap="round" fill="none" d="
M 352.35 27.05
L 335.2 68.7 182.2 68.7 164.85 26.65
M 363.45 0
L 352.35 27.05"/>

<path id="Shadow_0_Layer0_0_11_STROKES" stroke="#EBE253" stroke-width="6" stroke-linejoin="bevel" stroke-linecap="round" fill="none" d="
M 164.85 26.65
L 147.55 68.7 28.3 68.7 0 0
M 164.85 26.65
L 175.8 0"/>

<path id="Search_0_Layer0_0_1_STROKES" stroke="#E2E2E2" stroke-width="6" stroke-linejoin="bevel" stroke-linecap="round" fill="none" d="
M 2371.95 10.1
L 2371.95 34.1
M 2371.05 34.1
L 2336.7 34.1 2307.35 105.45 1926.5 105.45 1897.1 34.1 0 34.1 0 10.1"/>

<path id="Search_0_Layer0_0_2_STROKES" stroke="#E2E2E2" stroke-width="6" stroke-linejoin="bevel" stroke-linecap="butt" fill="none" d="
M 0 10.1
L 0 0
M 2371.95 0
L 2371.95 10.1"/>

<path id="Links_0_Layer0_0_1_STROKES" stroke="#39E53D" stroke-width="6" stroke-linejoin="bevel" stroke-linecap="round" fill="none" d="
M 0 10.1
L 0 34.1 1632.4 34.1 1661.8 105.45 1779.6 105.45 1808.95 34.1 2370.95 34.1
M 2371.95 34.1
L 2371.85 10.1"/>

<path id="Links_0_Layer0_0_2_STROKES" stroke="#39E53D" stroke-width="6" stroke-linejoin="bevel" stroke-linecap="butt" fill="none" d="
M 0 0
L 0 10.1
M 2371.85 10.1
L 2371.8 0"/>

<path id="Contacts_0_Layer0_0_1_STROKES" stroke="#1AE58C" stroke-width="6" stroke-linejoin="bevel" stroke-linecap="round" fill="none" d="
M 0 10.1
L 0 34.1 1443.5 34.1 1472.9 105.45 1635.55 105.45 1664.9 34.1 2370.95 34.1
M 2371.95 34.1
L 2371.95 10.1"/>

<path id="Contacts_0_Layer0_0_2_STROKES" stroke="#1AE58C" stroke-width="6" stroke-linejoin="bevel" stroke-linecap="butt" fill="none" d="
M 0 0
L 0 10.1
M 2371.95 10.1
L 2371.95 0"/>

<path id="Forum_0_Layer0_0_1_STROKES" stroke="#17D3E4" stroke-width="6" stroke-linejoin="bevel" stroke-linecap="round" fill="none" d="
M 0 10.1
L 0 34.1 1275.4 34.1 1304.8 105.45 1443.45 105.45 1472.8 34.1 2370.95 34.1
M 2371.95 34.1
L 2371.95 10.1"/>

<path id="Forum_0_Layer0_0_2_STROKES" stroke="#17D3E4" stroke-width="6" stroke-linejoin="bevel" stroke-linecap="butt" fill="none" d="
M 0 10.1
L 0 0
M 2371.95 10.1
L 2371.95 0"/>

<path id="Shop_0_Layer0_0_1_STROKES" stroke="#33A2F0" stroke-width="6" stroke-linejoin="bevel" stroke-linecap="round" fill="none" d="
M 0 10.1
L 0 34.1 1132.95 34.1 1162.35 105.45 1275.4 105.45 1304.75 34.1 2370.95 34.1
M 2371.95 34.1
L 2371.95 10.1"/>

<path id="Shop_0_Layer0_0_2_STROKES" stroke="#33A2F0" stroke-width="6" stroke-linejoin="bevel" stroke-linecap="butt" fill="none" d="
M 0 0
L 0 10.1
M 2371.95 10.1
L 2371.95 0"/>

<path id="Documents_0_Layer0_0_1_STROKES" stroke="#3065EC" stroke-width="6" stroke-linejoin="bevel" stroke-linecap="round" fill="none" d="
M 0 10.1
L 0 34.1 876.85 34.1 906.25 105.45 1131.3 105.45 1160.65 34.1 2370.95 34.1
M 2371.75 34.1
L 2371.65 10.1"/>

<path id="Documents_0_Layer0_0_2_STROKES" stroke="#3065EC" stroke-width="6" stroke-linejoin="bevel" stroke-linecap="butt" fill="none" d="
M 0 0
L 0 10.1
M 2371.65 10.1
L 2371.65 0"/>

<path id="Photos_0_Layer0_0_1_STROKES" stroke="#9045EC" stroke-width="6" stroke-linejoin="bevel" stroke-linecap="round" fill="none" d="
M 0 10.1
L 0 34.1 699.15 34.1 728.55 105.45 871.95 105.45 901.3 34.1 2370.95 34.1
M 2371.95 34.1
L 2371.95 10.1"/>

<path id="Photos_0_Layer0_0_2_STROKES" stroke="#9045EC" stroke-width="6" stroke-linejoin="bevel" stroke-linecap="butt" fill="none" d="
M 0 0
L 0 10.1
M 2371.95 10.1
L 2371.95 0"/>

<path id="About_0_Layer0_0_1_STROKES" stroke="#EBE253" stroke-width="6" stroke-linejoin="bevel" stroke-linecap="round" fill="none" d="
M 0 10.1
L 0 34.1 31.45 34.1 60.85 105.45 180.1 105.45 209.45 34.1 2370.95 34.1
M 2371.95 34.1
L 2371.95 10.1"/>

<path id="About_0_Layer0_0_2_STROKES" stroke="#EBE253" stroke-width="6" stroke-linejoin="bevel" stroke-linecap="butt" fill="none" d="
M 0 0
L 0 10.1
M 2371.95 10.1
L 2371.95 0"/>

<path id="History_0_Layer0_0_1_STROKES" stroke="#F3B852" stroke-width="6" stroke-linejoin="bevel" stroke-linecap="round" fill="none" d="
M 0 10.1
L 0 34.1 185.35 34.1 214.75 105.45 367.75 105.45 397.1 34.1 2370.95 34.1
M 2371.95 34.1
L 2371.95 10.1"/>

<path id="History_0_Layer0_0_2_STROKES" stroke="#F3B852" stroke-width="6" stroke-linejoin="bevel" stroke-linecap="butt" fill="none" d="
M 0 0
L 0 10.1
M 2371.95 10.1
L 2371.95 0"/>

<path id="News_0_Layer0_0_1_STROKES" stroke="#F5534B" stroke-width="6" stroke-linejoin="bevel" stroke-linecap="round" fill="none" d="
M 0 10.1
L 0 34.1 372.65 34.1 402.05 105.45 524.65 105.45 554 34.1 2370.95 34.1
M 2371.95 34.1
L 2371.95 10.1"/>

<path id="News_0_Layer0_0_2_STROKES" stroke="#F5534B" stroke-width="6" stroke-linejoin="bevel" stroke-linecap="butt" fill="none" d="
M 0 0
L 0 10.1
M 2371.95 10.1
L 2371.95 0"/>

<path id="Events_0_Layer0_0_1_STROKES" stroke="#F04DEA" stroke-width="6" stroke-linejoin="bevel" stroke-linecap="round" fill="none" d="
M 0 10.1
L 0 34.1 527.9 34.1 557.3 105.45 697.5 105.45 726.85 34.1 2369.95 34.1
M 2371.7 10.1
L 2371.7 34.1"/>

<path id="Events_0_Layer0_0_2_STROKES" stroke="#F04DEA" stroke-width="6" stroke-linejoin="bevel" stroke-linecap="butt" fill="none" d="
M 0 0
L 0 10.1
M 2371.7 0
L 2371.7 10.1"/>
</defs>

<g filter="url(#Filter_1)" transform="matrix( 1, 0, 0, 1, 0,0) ">
<g transform="matrix( 1, 0, 0, 1, 71.6,35.95) ">
<g transform="matrix( 1, 0, 0, 1, 0,0) ">
<use xlink:href="#Shadow_0_Layer0_0_FILL"/>

<use xlink:href="#Shadow_0_Layer0_0_1_STROKES"/>

<use xlink:href="#Shadow_0_Layer0_0_2_STROKES"/>

<use xlink:href="#Shadow_0_Layer0_0_3_STROKES"/>

<use xlink:href="#Shadow_0_Layer0_0_4_STROKES"/>

<use xlink:href="#Shadow_0_Layer0_0_5_STROKES"/>

<use xlink:href="#Shadow_0_Layer0_0_6_STROKES"/>

<use xlink:href="#Shadow_0_Layer0_0_7_STROKES"/>

<use xlink:href="#Shadow_0_Layer0_0_8_STROKES"/>

<use xlink:href="#Shadow_0_Layer0_0_9_STROKES"/>

<use xlink:href="#Shadow_0_Layer0_0_10_STROKES"/>

<use xlink:href="#Shadow_0_Layer0_0_11_STROKES"/>
</g>
</g>
</g>

<g filter="url(#Filter_2)" transform="matrix( 1, 0, 0, 1, 0,0) ">
<g transform="matrix( 1, 0, 0, 1, -1.15,-0.8) ">
<g filter="url(#Filter_3)" transform="matrix( 1, 0, 0, 1, 1.15,0.8) ">
<g transform="matrix( 1, 0, 0, 1, 39.05,-0.8) ">
<g transform="matrix( 1, 0, 0, 1, 0,0) ">
<use xlink:href="#Search_0_Layer0_0_FILL"/>

<use xlink:href="#Search_0_Layer0_0_1_STROKES"/>

<use xlink:href="#Search_0_Layer0_0_2_STROKES"/>
</g>
</g>
</g>

<g filter="url(#Filter_3)" transform="matrix( 1, 0, 0, 1, 1.15,0.8) ">
<g transform="matrix( 1, 0, 0, 1, 39.05,-0.8) ">
<g transform="matrix( 1, 0, 0, 1, 0,0) ">
<use xlink:href="#Links_0_Layer0_0_FILL"/>

<use xlink:href="#Links_0_Layer0_0_1_STROKES"/>

<use xlink:href="#Links_0_Layer0_0_2_STROKES"/>
</g>
</g>
</g>

<g filter="url(#Filter_3)" transform="matrix( 1, 0, 0, 1, 1.15,0.8) ">
<g transform="matrix( 1, 0, 0, 1, 39.05,-0.8) ">
<g transform="matrix( 1, 0, 0, 1, 0,0) ">
<use xlink:href="#Contacts_0_Layer0_0_FILL"/>

<use xlink:href="#Contacts_0_Layer0_0_1_STROKES"/>

<use xlink:href="#Contacts_0_Layer0_0_2_STROKES"/>
</g>
</g>
</g>

<g filter="url(#Filter_3)" transform="matrix( 1, 0, 0, 1, 1.15,0.8) ">
<g transform="matrix( 1, 0, 0, 1, 39.05,-0.8) ">
<g transform="matrix( 1, 0, 0, 1, 0,0) ">
<use xlink:href="#Forum_0_Layer0_0_FILL"/>

<use xlink:href="#Forum_0_Layer0_0_1_STROKES"/>

<use xlink:href="#Forum_0_Layer0_0_2_STROKES"/>
</g>
</g>
</g>

<g filter="url(#Filter_3)" transform="matrix( 1, 0, 0, 1, 1.15,0.8) ">
<g transform="matrix( 1, 0, 0, 1, 39.05,-0.8) ">
<g transform="matrix( 1, 0, 0, 1, 0,0) ">
<use xlink:href="#Shop_0_Layer0_0_FILL"/>

<use xlink:href="#Shop_0_Layer0_0_1_STROKES"/>

<use xlink:href="#Shop_0_Layer0_0_2_STROKES"/>
</g>
</g>
</g>

<g filter="url(#Filter_4)" transform="matrix( 1, 0, 0, 1, 1.15,0.8) ">
<g transform="matrix( 1, 0, 0, 1, 39.05,-0.8) ">
<g transform="matrix( 1, 0, 0, 1, 0,0) ">
<use xlink:href="#Documents_0_Layer0_0_FILL"/>

<use xlink:href="#Documents_0_Layer0_0_1_STROKES"/>

<use xlink:href="#Documents_0_Layer0_0_2_STROKES"/>
</g>
</g>
</g>

<g filter="url(#Filter_3)" transform="matrix( 1, 0, 0, 1, 1.15,0.8) ">
<g transform="matrix( 1, 0, 0, 1, 39.05,-0.8) ">
<g transform="matrix( 1, 0, 0, 1, 0,0) ">
<use xlink:href="#Photos_0_Layer0_0_FILL"/>

<use xlink:href="#Photos_0_Layer0_0_1_STROKES"/>

<use xlink:href="#Photos_0_Layer0_0_2_STROKES"/>
</g>
</g>
</g>

<g filter="url(#Filter_3)" transform="matrix( 1, 0, 0, 1, 1.15,0.8) ">
<g transform="matrix( 1, 0, 0, 1, 39.05,-0.8) ">
<g transform="matrix( 1, 0, 0, 1, 0,0) ">
<use xlink:href="#About_0_Layer0_0_FILL"/>

<use xlink:href="#About_0_Layer0_0_1_STROKES"/>

<use xlink:href="#About_0_Layer0_0_2_STROKES"/>
</g>
</g>
</g>

<g filter="url(#Filter_3)" transform="matrix( 1, 0, 0, 1, 1.15,0.8) ">
<g transform="matrix( 1, 0, 0, 1, 39.05,-0.8) ">
<g transform="matrix( 1, 0, 0, 1, 0,0) ">
<use xlink:href="#History_0_Layer0_0_FILL"/>

<use xlink:href="#History_0_Layer0_0_1_STROKES"/>

<use xlink:href="#History_0_Layer0_0_2_STROKES"/>
</g>
</g>
</g>

<g filter="url(#Filter_3)" transform="matrix( 1, 0, 0, 1, 1.15,0.8) ">
<g transform="matrix( 1, 0, 0, 1, 39.05,-0.8) ">
<g transform="matrix( 1, 0, 0, 1, 0,0) ">
<use xlink:href="#News_0_Layer0_0_FILL"/>

<use xlink:href="#News_0_Layer0_0_1_STROKES"/>

<use xlink:href="#News_0_Layer0_0_2_STROKES"/>
</g>
</g>
</g>

<g filter="url(#Filter_5)" transform="matrix( 1, 0, 0, 1, 1.15,0.8) ">
<g transform="matrix( 1, 0, 0, 1, 39.05,-0.8) ">
<g transform="matrix( 1, 0, 0, 1, 0,0) ">
<use xlink:href="#Events_0_Layer0_0_FILL"/>

<use xlink:href="#Events_0_Layer0_0_1_STROKES"/>

<use xlink:href="#Events_0_Layer0_0_2_STROKES"/>
</g>
</g>
</g>
</g>
</g>
</svg>
